<svg xmlns="http://www.w3.org/2000/svg" viewBox="0 0 98.1 118"><path d="M91.8 15.6C80.9-.1 59.2-4.7 43.6 5.2L16.1 22.8C8.6 27.5 3.4 35.2 1.9 43.9c-1.3 7.3-.2 14.8 3.3 21.3-2.4 3.6-4 7.6-4.7 11.8-1.6 8.9.5 18.1 5.7 25.4 11 15.7 32.6 20.3 48.2 10.4l27.5-17.6c7.5-4.7 12.7-12.4 14.2-21.1 1.3-7.3.2-14.8-3.3-21.3 2.4-3.6 4-7.6 4.7-11.8 1.7-9-.4-18.2-5.7-25.4" fill="#ff3e00"/><path d="M40.9 103.9a28 28 0 0 1-30-13.3 20.6 20.6 0 0 1-3.4-14.9 14 14 0 0 1 .5-2.3l.7-2.1 1.8 1.4a32.4 32.4 0 0 0 9.9 5.2l.9.3-.1.9a6.3 6.3 0 0 0 1.1 4.6c1.5 2.3 4.1 3.5 6.8 3.2a6 6 0 0 0 1.8-.5L58.3 69a5.3 5.3 0 0 0 2.4-3.6c.3-1.7-.3-3.5-1.6-4.7a8.1 8.1 0 0 0-6.8-3.1 6 6 0 0 0-1.8.5l-10.5 6.7a20.5 20.5 0 0 1-5.7 1.8 28 28 0 0 1-23.3-10.5 20.6 20.6 0 0 1-3.4-14.9c1-5.2 4.1-9.8 8.5-12.6l27.5-17.6a20.1 20.1 0 0 1 5.7-1.8 28 28 0 0 1 30 13.3c2.7 4.3 3.7 9.5 3.4 14.9a14 14 0 0 1-.5 2.3l-.7 2.1-1.8-1.4a32.4 32.4 0 0 0-9.9-5.2l-.9-.3.1-.9a6.3 6.3 0 0 0-1.2-4.6c-1.5-2.3-4.1-3.5-6.8-3.1a6 6 0 0 0-1.7.5l-27.5 17.5a5.3 5.3 0 0 0-2.4 3.6 6.3 6.3 0 0 0 1.5 4.7 8.1 8.1 0 0 0 6.8 3.2 6 6 0 0 0 1.8-.5l10.5-6.7a20.1 20.1 0 0 1 5.7-1.8 28 28 0 0 1 23.3 10.5c2.7 4.3 3.7 9.5 3.4 14.8-1 5.2-4.1 9.8-8.5 12.7l-27.5 17.5a20.1 20.1 0 0 1-5.7 1.8" fill="#fff"/></svg>